<?xml version="1.0" encoding="UTF-8" standalone="no"?>
<!-- Created with Inkscape (http://www.inkscape.org/) -->

<svg
   xmlns:dc="http://purl.org/dc/elements/1.1/"
   xmlns:cc="http://creativecommons.org/ns#"
   xmlns:rdf="http://www.w3.org/1999/02/22-rdf-syntax-ns#"
   xmlns:svg="http://www.w3.org/2000/svg"
   xmlns="http://www.w3.org/2000/svg"
   xmlns:sodipodi="http://sodipodi.sourceforge.net/DTD/sodipodi-0.dtd"
   xmlns:inkscape="http://www.inkscape.org/namespaces/inkscape"
   width="210mm"
   height="297mm"
   viewBox="0 0 744.09448819 1052.3622047"
   id="svg2"
   version="1.1"
   inkscape:version="0.91 r13725"
   inkscape:export-filename="/home/carrazza/repo/riemannai/theta/docs/theta.png"
   inkscape:export-xdpi="90"
   inkscape:export-ydpi="90"
   sodipodi:docname="theta.svg">
  <sodipodi:namedview
     id="base"
     pagecolor="#ffffff"
     bordercolor="#666666"
     borderopacity="1.0"
     inkscape:pageopacity="0.0"
     inkscape:pageshadow="2"
     inkscape:zoom="0.7"
     inkscape:cx="237.81523"
     inkscape:cy="306.11362"
     inkscape:document-units="px"
     inkscape:current-layer="layer1"
     showgrid="false"
     inkscape:window-width="3119"
     inkscape:window-height="1755"
     inkscape:window-x="81"
     inkscape:window-y="45"
     inkscape:window-maximized="1" />
  <defs
     id="defs4" />
  <metadata
     id="metadata7">
    <rdf:RDF>
      <cc:Work
         rdf:about="">
        <dc:format>image/svg+xml</dc:format>
        <dc:type
           rdf:resource="http://purl.org/dc/dcmitype/StillImage" />
        <dc:title></dc:title>
      </cc:Work>
    </rdf:RDF>
  </metadata>
  <g
     inkscape:label="Layer 1"
     inkscape:groupmode="layer"
     id="layer1">
    <flowRoot
       xml:space="preserve"
       id="flowRoot4136"
       style="fill:black;stroke:none;stroke-opacity:1;stroke-width:1px;stroke-linejoin:miter;stroke-linecap:butt;fill-opacity:1;font-family:sans-serif;font-style:normal;font-weight:normal;font-size:40px;line-height:125%;letter-spacing:0px;word-spacing:0px"><flowRegion
         id="flowRegion4138"><rect
           id="rect4140"
           width="313.65237"
           height="167.68532"
           x="116.67262"
           y="447.28082" /></flowRegion><flowPara
         id="flowPara4142" /></flowRoot>    <flowRoot
       xml:space="preserve"
       id="flowRoot4144"
       style="fill:black;stroke:none;stroke-opacity:1;stroke-width:1px;stroke-linejoin:miter;stroke-linecap:butt;fill-opacity:1;font-family:sans-serif;font-style:normal;font-weight:normal;font-size:40px;line-height:125%;letter-spacing:0px;word-spacing:0px"><flowRegion
         id="flowRegion4146"><rect
           id="rect4148"
           width="266.68027"
           height="132.83505"
           x="126.26907"
           y="485.66663" /></flowRegion><flowPara
         id="flowPara4150" /></flowRoot>    <g
       inkscape:export-ydpi="12.875057"
       inkscape:export-xdpi="12.875057"
       style="fill:#dbdbdb;fill-opacity:1;stroke:#000000;stroke-width:0.64576894;stroke-miterlimit:4;stroke-dasharray:none;stroke-opacity:1"
       transform="matrix(19.457513,0,0,19.457513,-5835.2763,-6105.7741)"
       id="g4177">
      <g
         style="font-style:normal;font-variant:normal;font-weight:normal;font-stretch:normal;letter-spacing:normal;word-spacing:normal;text-anchor:start;fill:#dbdbdb;fill-opacity:1;fill-rule:evenodd;stroke:#000000;stroke-width:0.60750115;stroke-linecap:butt;stroke-linejoin:miter;stroke-miterlimit:4;stroke-dasharray:none;stroke-dashoffset:0;stroke-opacity:1"
         id="content"
         transform="matrix(1.0629921,0,0,-1.0629921,-186.02362,789.27165)"
         xml:space="preserve"
         stroke-miterlimit="10.433"
         font-style="normal"
         font-variant="normal"
         font-weight="normal"
         font-stretch="normal"
         font-size-adjust="none"
         letter-spacing="normal"
         word-spacing="normal"><path
           style="fill:#dbdbdb;fill-opacity:1;stroke:#000000;stroke-width:0.60750115;stroke-miterlimit:4;stroke-dasharray:none;stroke-opacity:1"
           inkscape:connector-curvature="0"
           d="m 491.91,422.89 -0.02,0.94 -0.06,0.94 -0.11,0.91 -0.15,0.91 -0.18,0.88 -0.23,0.87 -0.26,0.85 -0.3,0.83 -0.34,0.81 -0.37,0.79 -0.4,0.76 -0.43,0.74 -0.47,0.71 -0.49,0.69 -0.53,0.66 -0.55,0.63 -0.58,0.6 -0.6,0.57 -0.63,0.54 -0.65,0.51 -0.67,0.47 -0.7,0.44 -0.71,0.39 -0.74,0.37 -0.75,0.32 -0.76,0.29 -0.79,0.24 -0.8,0.2 -0.81,0.16 -0.82,0.11 -0.84,0.07 -0.84,0.03 0,-1.1 c 5.03,0 11.75,-4.53 11.75,-17.13 0,-12.71 -7.02,-16.84 -11.7,-16.84 l 0,0 c -4.93,0 -11.76,4.28 -11.76,16.84 0,12.8 6.93,17.13 11.71,17.13 l 0,1.1 c -8.92,0 -16.54,-7.97 -16.54,-18.23 0,-10.21 7.67,-17.99 16.54,-17.99 9.06,0 16.58,7.92 16.58,17.99 z"
           id="path4180" /><polygon
           style="fill:#dbdbdb;fill-opacity:1;stroke:#000000;stroke-width:0.60750115;stroke-miterlimit:4;stroke-dasharray:none;stroke-opacity:1"
           points="467.71,419.45 467.71,421.14 483,421.14 483,419.45 484.24,419.45 484.24,426.62 483,426.62 483,424.93 467.71,424.93 467.71,426.62 466.46,426.62 466.46,419.45 "
           id="polygon4182" /></g>    </g>
  </g>
</svg>
